<svg xmlns="http://www.w3.org/2000/svg"><style>:root svg:not(:target){display:none}</style><svg viewBox="0 0 18 21" fill="none" id="add_document"><path d="m16.81 4.6-3.48-3.47a3 3 0 0 0-1.83-.76h-10c-.6 0-1.07.48-1.07 1.07v17.86c0 .59.48 1.07 1.07 1.07h15c.6 0 1.07-.48 1.07-1.07v-12.86a3 3 0 0 0-.76-1.83Zm-4.95-2.71c.19.06.38.16.45.24l3.5 3.5c.08.07.18.26.24.45h-4.2v-4.2Zm4.28 17.05h-14.28v-17.14h8.57v4.64c0 .6.48 1.07 1.07 1.07h4.64v11.43Zm-11.43-9.64v.71c0 .2.16.36.36.36h7.86c.2 0 .36-.16.36-.36v-.71c0-.2-.16-.36-.36-.36h-7.86c-.2 0-.36.16-.36.36Zm8.22 2.5h-7.86c-.2 0-.36.15-.36.35v.72c0 .2.16.36.36.36h7.86c.2 0 .36-.16.36-.36v-.72c0-.2-.16-.35-.36-.35Zm0 2.85h-7.86c-.2 0-.36.16-.36.36v.72c0 .2.16.35.36.35h7.86c.2 0 .36-.15.36-.35v-.72c0-.2-.16-.36-.36-.36Z" fill="#272733"></path></svg><svg viewBox="0 0 9 6" fill="none" id="arrow"><path d="M8.93 1.51a.3.3 0 0 0-.09-.2l-.44-.45a.3.3 0 0 0-.2-.09.3.3 0 0 0-.21.09l-3.51 3.5-3.51-3.5a.3.3 0 0 0-.2-.09.3.3 0 0 0-.21.09l-.45.45a.3.3 0 0 0-.09.2c0 .07.04.15.1.2l4.15 4.17a.3.3 0 0 0 .2.09.3.3 0 0 0 .21-.1l4.16-4.15a.3.3 0 0 0 .1-.2Z" fill="#000"></path></svg><svg viewBox="0 0 40 43" fill="none" id="documents"><path d="M16 23.87v-1.28c0-.36.27-.65.64-.65h14.14c.36 0 .64.29.64.65v1.28c0 .36-.28.65-.64.65h-14.14a.63.63 0 0 1-.65-.65Zm.64 3.22h14.14c.36 0 .64.28.64.64v1.29c0 .36-.28.64-.64.64h-14.14a.63.63 0 0 1-.65-.64v-1.29c0-.36.28-.64.65-.64Zm0 5.14h14.14c.36 0 .64.28.64.64v1.29c0 .36-.28.64-.64.64h-14.14a.63.63 0 0 1-.65-.64v-1.29c0-.36.28-.64.65-.64Z" fill="#fff"></path><path fill-rule="evenodd" clip-rule="evenodd" d="M8.28 15.81a7.41 7.41 0 1 1 7.17-9.3h12.76c1.06 0 2.55.63 3.3 1.37l6.26 6.27a5.39 5.39 0 0 1 1.37 3.3v23.14c0 1.06-.87 1.93-1.93 1.93h-27a1.93 1.93 0 0 1-1.93-1.93v-24.78Zm2.57-.45a7.42 7.42 0 0 0 4.81-6.27h10.62v8.35c0 1.07.86 1.93 1.93 1.93h8.35v20.57h-25.71v-24.58Zm18.82-5.67a2.56 2.56 0 0 0-.82-.44v7.55h7.55c-.12-.34-.3-.68-.44-.82l-6.29-6.3Zm-20.4-.29h4v-2h-4v-4h-2v4h-4v2h4v4h2v-4Z" fill="#fff"></path></svg><svg viewBox="0 0 36 29" fill="none" id="mail"><path d="M33.43 25.6c0 .35-.3.65-.64.65h-29.58a.66.66 0 0 1-.64-.64v-15.43c.42.48.89.92 1.39 1.32a275.6 275.6 0 0 1 8.56 6.8c1.5 1.26 3.37 2.8 5.46 2.8h.04c2.09 0 3.96-1.54 5.46-2.8 2.8-2.34 5.69-4.59 8.56-6.8.5-.4.97-.84 1.39-1.32v15.43Zm0-21.1c0 1.7-1.65 3.93-2.95 4.96-2.7 2.1-5.39 4.23-8.06 6.36-1.07.87-3 2.72-4.4 2.72h-.04c-1.4 0-3.33-1.85-4.4-2.72a833.95 833.95 0 0 0-8.06-6.36 7.24 7.24 0 0 1-2.95-5.71c0-.34.3-.64.64-.64h29.58c.76 0 .64.88.64 1.38Zm2.57-.75a3.22 3.22 0 0 0-3.21-3.21h-29.58a3.22 3.22 0 0 0-3.21 3.21v21.86a3.22 3.22 0 0 0 3.21 3.21h29.58a3.22 3.22 0 0 0 3.21-3.21v-21.86Z" fill="#fff"></path></svg><svg viewBox="0 0 40 27" fill="none" id="money"><path d="M15.93 18.54v-1.93h2.57v-5.79h-.04c-.32.5-.62.72-1.1 1.15l-1.55-1.61 2.97-2.75h2.3v9h2.56v1.93h-7.71Zm10.28-5.15c0-3.65-2.2-8.35-6.42-8.35s-6.43 4.7-6.43 8.35c0 3.66 2.2 8.36 6.43 8.36 4.21 0 6.42-4.7 6.42-8.36Zm10.29 5.15a5.15 5.15 0 0 0-5.14 5.14h-23.15a5.15 5.15 0 0 0-5.14-5.14v-10.29a5.15 5.15 0 0 0 5.14-5.14h23.15a5.15 5.15 0 0 0 5.14 5.14v10.29Zm2.57-16.72c0-.7-.58-1.28-1.28-1.28h-36c-.7 0-1.29.58-1.29 1.28v23.14c0 .7.58 1.29 1.29 1.29h36c.7 0 1.28-.58 1.28-1.29v-23.14Z" fill="#fff"></path></svg><svg viewBox="0 0 31 32" fill="none" id="percent"><path d="M25.79 23.96a2.6 2.6 0 0 1-2.58 2.58 2.59 2.59 0 0 1-2.57-2.58 2.6 2.6 0 0 1 2.57-2.57 2.6 2.6 0 0 1 2.58 2.57Zm-15.43-15.42a2.6 2.6 0 0 1-2.57 2.57 2.59 2.59 0 0 1-2.58-2.57 2.6 2.6 0 0 1 2.58-2.58 2.6 2.6 0 0 1 2.57 2.58Zm20.57 15.42a7.72 7.72 0 1 0-15.43 0 7.72 7.72 0 0 0 15.43 0Zm-1.93-21.85c0-.7-.58-1.29-1.29-1.29h-3.21c-.4 0-.78.2-1.02.52l-21.22 28.29a1.3 1.3 0 0 0-.26.76c0 .7.58 1.29 1.29 1.29h3.21c.4 0 .78-.2 1.02-.52l21.22-28.29c.16-.22.26-.48.26-.76Zm-13.5 6.43a7.72 7.72 0 1 0-15.43 0 7.72 7.72 0 0 0 15.43 0Z" fill="#fff"></path></svg><svg viewBox="0 0 21 20" fill="none" id="qiwi"><path d="M16.91 13.46c.06.38-.07.55-.2.55-.12 0-.3-.16-.51-.47-.21-.32-.28-.66-.18-.84.04-.06.1-.1.17-.13a.3.3 0 0 1 .21.02c.34.13.48.63.51.87Zm-1.89.85c.41.33.54.73.32 1a.67.67 0 0 1-.55.25 1 1 0 0 1-.62-.22c-.37-.32-.48-.83-.24-1.12a.53.53 0 0 1 .43-.17 1 1 0 0 1 .66.26Zm-.68 3.23c1.76 0 3.67.58 5.8 2.4.2.18.48-.05.3-.27-2.08-2.54-4-3.03-5.92-3.44a6.36 6.36 0 0 1-4.4-3.18c-.17-.28-.24-.23-.26.13a7.7 7.7 0 0 0 .13 1.59h-.3a6.1 6.1 0 0 1-3.37-1 5.93 5.93 0 0 1-2.24-2.63 5.7 5.7 0 0 1 1.32-6.4 6.27 6.27 0 0 1 6.62-1.27 6.04 6.04 0 0 1 2.73 2.15 5.74 5.74 0 0 1 .99 3.95 9.38 9.38 0 0 0-1.93-.03c-.23.02-.2.13-.03.15 2 .35 3.4 1.55 3.71 3.74l.01.03a.06.06 0 0 0 .07.02l.02-.02a8.66 8.66 0 0 0-1.31-10.79 9.46 9.46 0 0 0-11.11-1.52 9 9 0 0 0-3.95 4.29 8.62 8.62 0 0 0-.41 5.72 8.88 8.88 0 0 0 3.28 4.78 9.4 9.4 0 0 0 5.6 1.84c1.35 0 2.69-.24 4.65-.24Z" fill="#3E9CDC"></path></svg><svg viewBox="0 0 35 35" fill="none" id="search"><path d="M23.93 14.93a9.01 9.01 0 0 1-18 0 9.01 9.01 0 0 1 18 0Zm10.28 16.71c0-.68-.28-1.34-.74-1.8l-6.89-6.9a14.14 14.14 0 1 0-3.64 3.64l6.9 6.87c.46.48 1.12.76 1.8.76 1.4 0 2.57-1.16 2.57-2.57Z" fill="#fff"></path></svg><svg viewBox="0 0 12 14" fill="none" id="vkontakte"><path d="M11.18 9.29a3.5 3.5 0 0 1-1.36 2.94 4.6 4.6 0 0 1-1.63.82 8.5 8.5 0 0 1-2.24.24h-5.24v-13.08h4.63c.96 0 1.68.04 2.18.11.5.07.96.22 1.4.46.46.25.81.59 1.04 1 .23.43.35.92.35 1.47 0 .64-.16 1.2-.48 1.7-.32.5-.76.87-1.32 1.1v.07c.8.17 1.45.52 1.94 1.05.49.52.73 1.23.73 2.12Zm-4.21-5.38c0-.21-.06-.43-.17-.65a.96.96 0 0 0-.5-.49 2.15 2.15 0 0 0-.77-.15l-1.32-.01h-.23v2.77h.42l1.17-.02c.23-.01.47-.08.7-.19.27-.12.45-.29.55-.5.1-.22.15-.48.15-.76Zm.83 5.31c0-.4-.09-.72-.25-.94a1.5 1.5 0 0 0-.74-.52 2.5 2.5 0 0 0-.82-.13l-1.4-.01h-.6v3.27h.17a59 59 0 0 0 1.77-.01c.33-.01.67-.1 1-.24.3-.13.52-.32.66-.56.14-.25.2-.54.2-.86Z" fill="#3E9CDC"></path></svg><svg viewBox="0 0 19 18" fill="none" id="web_money"><path d="M9.34 0a9.12 9.12 0 0 1 4.52 1.19l-.82.73-1.24-1.27-2.13 1.87-1.26-1.35-3.92 3.49 2.51 2.74-.98.85 2.48 2.73-.98.85 3.54 3.9 2.1-1.9 1.82 2.03a9.07 9.07 0 0 1-5.62 1.94c-4.97 0-9.01-4-9.01-8.9a8.95 8.95 0 0 1 9-8.9Zm-1.65 8.35 2.15-1.9 1.93 2.12-2.15 1.9-1.93-2.12Zm1.53 3.67 2.13-1.92 1.95 2.13-2.15 1.9-1.93-2.1Zm-3.06-7.3 2.15-1.9 1.93 2.13-2.15 1.9-1.93-2.12Zm3.94-1.01 1.6-1.43 1.44 1.58-1.6 1.44-1.44-1.6Zm2.85 6.54 1.6-1.43 1.45 1.6-1.6 1.43-1.45-1.6Zm1.41 3.22 1.6-1.43 1.45 1.58-1.6 1.44-1.45-1.6Zm.66-7.35 1.06-.95.97 1.05-1.07.96-.96-1.06Zm-1.38-3.14 1.07-.97.96 1.07-1.07.95-.96-1.05Zm2.74 6.29 1.06-.96.98 1.06-1.08.95-.96-1.05Zm-4.8-2.37 1.6-1.42 1.44 1.58-1.6 1.42-1.44-1.58Z" fill="#3E9CDC"></path></svg><svg viewBox="0 0 15 18" fill="none" id="yandex_money"><path fill-rule="evenodd" clip-rule="evenodd" d="M.78 8.93c0-.98.08-1.6 2.14-3.13 1.7-1.26 7.15-5.56 7.15-5.56v7.18h4.15v10.34h-12.14a1.3 1.3 0 0 1-1.3-1.28v-7.55Z" fill="#3E9CDC"></path><path fill-rule="evenodd" clip-rule="evenodd" d="M10.07 7.42v4.17l-7.62 5.14 9.64-3.1v-6.2h-2.02Z" fill="#000" fill-opacity=".2"></path><path fill-rule="evenodd" clip-rule="evenodd" d="M6.59 7.2c.45-.52 1.1-.7 1.45-.4.36.29.29.96-.16 1.48-.44.53-1.1.72-1.45.42-.36-.3-.29-.97.16-1.5Z" fill="#231F20"></path></svg></svg>