<svg viewBox="0 0 18 21" fill="none" xmlns="http://www.w3.org/2000/svg"><path d="m16.81 4.6-3.48-3.47a3 3 0 0 0-1.83-.76h-10c-.6 0-1.07.48-1.07 1.07v17.86c0 .59.48 1.07 1.07 1.07h15c.6 0 1.07-.48 1.07-1.07v-12.86a3 3 0 0 0-.76-1.83Zm-4.95-2.71c.19.06.38.16.45.24l3.5 3.5c.08.07.18.26.24.45h-4.2v-4.2Zm4.28 17.05h-14.28v-17.14h8.57v4.64c0 .6.48 1.07 1.07 1.07h4.64v11.43Zm-11.43-9.64v.71c0 .2.16.36.36.36h7.86c.2 0 .36-.16.36-.36v-.71c0-.2-.16-.36-.36-.36h-7.86c-.2 0-.36.16-.36.36Zm8.22 2.5h-7.86c-.2 0-.36.15-.36.35v.72c0 .2.16.36.36.36h7.86c.2 0 .36-.16.36-.36v-.72c0-.2-.16-.35-.36-.35Zm0 2.85h-7.86c-.2 0-.36.16-.36.36v.72c0 .2.16.35.36.35h7.86c.2 0 .36-.15.36-.35v-.72c0-.2-.16-.36-.36-.36Z" fill="#272733"/></svg>