<svg viewBox="0 0 36 29" fill="none" xmlns="http://www.w3.org/2000/svg"><path d="M33.43 25.6c0 .35-.3.65-.64.65h-29.58a.66.66 0 0 1-.64-.64v-15.43c.42.48.89.92 1.39 1.32a275.6 275.6 0 0 1 8.56 6.8c1.5 1.26 3.37 2.8 5.46 2.8h.04c2.09 0 3.96-1.54 5.46-2.8 2.8-2.34 5.69-4.59 8.56-6.8.5-.4.97-.84 1.39-1.32v15.43Zm0-21.1c0 1.7-1.65 3.93-2.95 4.96-2.7 2.1-5.39 4.23-8.06 6.36-1.07.87-3 2.72-4.4 2.72h-.04c-1.4 0-3.33-1.85-4.4-2.72a833.95 833.95 0 0 0-8.06-6.36 7.24 7.24 0 0 1-2.95-5.71c0-.34.3-.64.64-.64h29.58c.76 0 .64.88.64 1.38Zm2.57-.75a3.22 3.22 0 0 0-3.21-3.21h-29.58a3.22 3.22 0 0 0-3.21 3.21v21.86a3.22 3.22 0 0 0 3.21 3.21h29.58a3.22 3.22 0 0 0 3.21-3.21v-21.86Z" fill="#fff"/></svg>