<svg viewBox="0 0 31 32" fill="none" xmlns="http://www.w3.org/2000/svg"><path d="M25.79 23.96a2.6 2.6 0 0 1-2.58 2.58 2.59 2.59 0 0 1-2.57-2.58 2.6 2.6 0 0 1 2.57-2.57 2.6 2.6 0 0 1 2.58 2.57Zm-15.43-15.42a2.6 2.6 0 0 1-2.57 2.57 2.59 2.59 0 0 1-2.58-2.57 2.6 2.6 0 0 1 2.58-2.58 2.6 2.6 0 0 1 2.57 2.58Zm20.57 15.42a7.72 7.72 0 1 0-15.43 0 7.72 7.72 0 0 0 15.43 0Zm-1.93-21.85c0-.7-.58-1.29-1.29-1.29h-3.21c-.4 0-.78.2-1.02.52l-21.22 28.29a1.3 1.3 0 0 0-.26.76c0 .7.58 1.29 1.29 1.29h3.21c.4 0 .78-.2 1.02-.52l21.22-28.29c.16-.22.26-.48.26-.76Zm-13.5 6.43a7.72 7.72 0 1 0-15.43 0 7.72 7.72 0 0 0 15.43 0Z" fill="#fff"/></svg>