<svg viewBox="0 0 12 14" fill="none" xmlns="http://www.w3.org/2000/svg"><path d="M11.18 9.29a3.5 3.5 0 0 1-1.36 2.94 4.6 4.6 0 0 1-1.63.82 8.5 8.5 0 0 1-2.24.24h-5.24v-13.08h4.63c.96 0 1.68.04 2.18.11.5.07.96.22 1.4.46.46.25.81.59 1.04 1 .23.43.35.92.35 1.47 0 .64-.16 1.2-.48 1.7-.32.5-.76.87-1.32 1.1v.07c.8.17 1.45.52 1.94 1.05.49.52.73 1.23.73 2.12Zm-4.21-5.38c0-.21-.06-.43-.17-.65a.96.96 0 0 0-.5-.49 2.15 2.15 0 0 0-.77-.15l-1.32-.01h-.23v2.77h.42l1.17-.02c.23-.01.47-.08.7-.19.27-.12.45-.29.55-.5.1-.22.15-.48.15-.76Zm.83 5.31c0-.4-.09-.72-.25-.94a1.5 1.5 0 0 0-.74-.52 2.5 2.5 0 0 0-.82-.13l-1.4-.01h-.6v3.27h.17a59 59 0 0 0 1.77-.01c.33-.01.67-.1 1-.24.3-.13.52-.32.66-.56.14-.25.2-.54.2-.86Z" fill="#3E9CDC"/></svg>